<svg width="82" height="26" viewBox="0 0 82 26" fill="none" xmlns="http://www.w3.org/2000/svg">
<path d="M0.73 25V0.324998H4.125L18.44 18.84H17.53V0.324998H21.73V25H18.335L4.055 6.485H4.93V25H0.73ZM35.3409 25.35C32.3776 25.35 30.0559 24.5333 28.3759 22.9C26.6959 21.2667 25.8559 19.0267 25.8559 16.18C25.8559 14.3367 26.2176 12.7267 26.9409 11.35C27.6642 9.97333 28.6676 8.9 29.9509 8.13C31.2576 7.36 32.7742 6.975 34.5009 6.975C36.2042 6.975 37.6276 7.33667 38.7709 8.06C39.9142 8.78333 40.7776 9.79833 41.3609 11.105C41.9676 12.4117 42.2709 13.94 42.2709 15.69V16.845H29.3909V14.535H39.1559L38.5609 15.025C38.5609 13.3917 38.2109 12.1433 37.5109 11.28C36.8342 10.4167 35.8426 9.985 34.5359 9.985C33.0892 9.985 31.9692 10.4983 31.1759 11.525C30.4059 12.5517 30.0209 13.9867 30.0209 15.83V16.285C30.0209 18.1983 30.4876 19.6333 31.4209 20.59C32.3776 21.5233 33.7192 21.99 35.4459 21.99C36.4492 21.99 37.3826 21.8617 38.2459 21.605C39.1326 21.325 39.9726 20.8817 40.7659 20.275L42.0609 23.215C41.2209 23.8917 40.2176 24.4167 39.0509 24.79C37.8842 25.1633 36.6476 25.35 35.3409 25.35ZM50.8823 25L43.2523 7.325H47.9073L53.4373 21.15H52.3523L58.0223 7.325H62.3973L54.7323 25H50.8823ZM72.3786 25.35C70.5586 25.35 68.9836 24.9767 67.6536 24.23C66.3236 23.4833 65.2852 22.4217 64.5386 21.045C63.8152 19.6683 63.4536 18.035 63.4536 16.145C63.4536 14.255 63.8152 12.6333 64.5386 11.28C65.2852 9.90333 66.3236 8.84167 67.6536 8.095C68.9836 7.34833 70.5586 6.975 72.3786 6.975C74.1986 6.975 75.7736 7.34833 77.1036 8.095C78.4569 8.84167 79.4952 9.90333 80.2186 11.28C80.9652 12.6333 81.3386 14.255 81.3386 16.145C81.3386 18.035 80.9652 19.6683 80.2186 21.045C79.4952 22.4217 78.4569 23.4833 77.1036 24.23C75.7736 24.9767 74.1986 25.35 72.3786 25.35ZM72.3786 21.99C73.7552 21.99 74.8519 21.5117 75.6686 20.555C76.4852 19.575 76.8936 18.105 76.8936 16.145C76.8936 14.185 76.4852 12.7267 75.6686 11.77C74.8519 10.8133 73.7552 10.335 72.3786 10.335C71.0019 10.335 69.9052 10.8133 69.0886 11.77C68.2719 12.7267 67.8636 14.185 67.8636 16.145C67.8636 18.105 68.2719 19.575 69.0886 20.555C69.9052 21.5117 71.0019 21.99 72.3786 21.99Z" fill="white"/>
</svg>
